<svg width="70" height="70" viewBox="0 0 70 70" fill="none" xmlns="http://www.w3.org/2000/svg">
    <path d="M26.2495 19.8276H32.023V46.2573C32.023 46.6011 32.3042 46.8823 32.648 46.8823H37.3355C37.6792 46.8823 37.9605 46.6011 37.9605 46.2573V19.8276H43.7495C44.273 19.8276 44.562 19.2261 44.2417 18.8198L35.4917 7.74168C35.4332 7.66698 35.3585 7.60657 35.2733 7.56502C35.188 7.52347 35.0944 7.50188 34.9995 7.50188C34.9047 7.50188 34.811 7.52347 34.7258 7.56502C34.6405 7.60657 34.5658 7.66698 34.5073 7.74168L25.7573 18.812C25.437 19.2261 25.7261 19.8276 26.2495 19.8276ZM63.5933 43.9136H58.9058C58.562 43.9136 58.2808 44.1948 58.2808 44.5386V56.5698H11.7183V44.5386C11.7183 44.1948 11.437 43.9136 11.0933 43.9136H6.40576C6.06201 43.9136 5.78076 44.1948 5.78076 44.5386V60.0073C5.78076 61.3901 6.89795 62.5073 8.28076 62.5073H61.7183C63.1011 62.5073 64.2183 61.3901 64.2183 60.0073V44.5386C64.2183 44.1948 63.937 43.9136 63.5933 43.9136Z" fill="#8C30F5"/>
</svg>
