<svg xmlns="http://www.w3.org/2000/svg" width="28" height="28" fill="none"><path d="M.575 28h9.493c4.502 0 8.151-3.649 8.151-8.151H8.726C4.225 19.849.575 23.499.575 28z" fill="#f22bb2"/><path d="M1 8.151v11.986c4.502 0 8.151-3.649 8.151-8.151V0C4.649 0 1 3.649 1 8.151z" fill="#8c30f5"/><path d="M27.425 0h-9.493C13.43 0 9.781 3.649 9.781 8.151h9.493c4.502 0 8.151-3.649 8.151-8.151z" fill="#fe9a22"/><path d="M27.425 19.37V7.384c-4.501 0-8.151 3.649-8.151 8.151v11.986c4.502 0 8.151-3.649 8.151-8.151z" fill="#2ec5ce"/></svg>
