<svg width="24" height="24" viewBox="0 0 24 24" fill="none" xmlns="http://www.w3.org/2000/svg">
<path d="M20.3076 10.1539C20.3076 16.6154 12 22.1539 12 22.1539C12 22.1539 3.69226 16.6154 3.69226 10.1539C3.69226 7.95055 4.56753 5.83745 6.12553 4.27946C7.68352 2.72146 9.79662 1.84619 12 1.84619C14.2033 1.84619 16.3164 2.72146 17.8744 4.27946C19.4324 5.83745 20.3076 7.95055 20.3076 10.1539Z" stroke="#8C30F5" stroke-width="2" stroke-linecap="round" stroke-linejoin="round"/>
<path d="M11.9999 12.9231C13.5293 12.9231 14.7692 11.6833 14.7692 10.1539C14.7692 8.62447 13.5293 7.38464 11.9999 7.38464C10.4705 7.38464 9.23071 8.62447 9.23071 10.1539C9.23071 11.6833 10.4705 12.9231 11.9999 12.9231Z" stroke="#8C30F5" stroke-width="2" stroke-linecap="round" stroke-linejoin="round"/>
</svg>
